<svg width="30" height="30" viewBox="0 0 30 30" fill="none" xmlns="http://www.w3.org/2000/svg">
<path fill-rule="evenodd" clip-rule="evenodd" d="M2.5 3.75H27.5C28.875 3.75 30 4.875 30 6.25L29.9875 23.75C29.9875 25.125 28.875 26.25 27.5 26.25H2.5C1.125 26.25 0 25.125 0 23.75V6.25C0 4.875 1.125 3.75 2.5 3.75ZM2.5 23.75H27.5V6.25H2.5V23.75ZM26.25 7.5H17.5V13.75H26.25V7.5ZM21.875 12.1875L25 10V8.75L21.875 10.9375L18.75 8.75V10L21.875 12.1875ZM11.25 15C13.3125 15 15 13.3125 15 11.25C15 9.1875 13.3125 7.5 11.25 7.5C9.1875 7.5 7.5 9.1875 7.5 11.25C7.5 13.3125 9.1875 15 11.25 15ZM12.5 11.25C12.5 10.5625 11.9375 10 11.25 10C10.5625 10 10 10.5625 10 11.25C10 11.9375 10.5625 12.5 11.25 12.5C11.9375 12.5 12.5 11.9375 12.5 11.25ZM18.75 20.7375C18.75 17.6125 13.7875 16.2625 11.25 16.2625C8.7125 16.2625 3.75 17.6125 3.75 20.7375V22.5H18.75V20.7375ZM11.25 18.75C9.625 18.75 7.775 19.375 6.85 20H15.65C14.7125 19.3625 12.875 18.75 11.25 18.75Z" fill="#9EC5FE"/>
</svg>
