<svg width="14" height="14" viewBox="0 0 14 14" fill="none" xmlns="http://www.w3.org/2000/svg">
<path d="M4.2221 7.3902L8.67223 11.8402C8.77515 11.9433 8.91255 12 9.05905 12C9.20555 12 9.34295 11.9433 9.44588 11.8402L9.7736 11.5126C9.98685 11.2991 9.98685 10.9521 9.7736 10.739L6.03672 7.00207L9.77775 3.26105C9.88067 3.15804 9.9375 3.02072 9.9375 2.8743C9.9375 2.72772 9.88067 2.5904 9.77775 2.48731L9.45002 2.15975C9.34702 2.05675 9.2097 2 9.0632 2C8.9167 2 8.7793 2.05675 8.67637 2.15975L4.2221 6.61386C4.11893 6.7172 4.06226 6.85516 4.06259 7.00183C4.06226 7.14906 4.11893 7.28695 4.2221 7.3902Z" fill="#2C7DFA"/>
</svg>
