<svg width="20" height="20" viewBox="0 0 20 20" fill="none" xmlns="http://www.w3.org/2000/svg">
<path fill-rule="evenodd" clip-rule="evenodd" d="M20 10C20 4.47715 15.5228 0 10 0C4.47715 0 0 4.47715 0 10C0 15.5228 4.47715 20 10 20C15.5228 20 20 15.5228 20 10ZM18.7628 10C18.7628 5.16751 14.8453 1.25 10.0128 1.25C5.18033 1.25 1.26282 5.16751 1.26282 10C1.26282 14.8325 5.18033 18.75 10.0128 18.75C14.8453 18.75 18.7628 14.8325 18.7628 10ZM13.4375 6.25C13.9554 6.25 14.375 6.80958 14.375 7.5C14.375 8.19042 13.9554 8.75 13.4375 8.75C12.9196 8.75 12.5 8.19042 12.5 7.5C12.5 6.80958 12.9196 6.25 13.4375 6.25ZM8.12083 7.5C8.12083 6.80917 7.70208 6.25 7.18542 6.25C6.66875 6.25 6.25 6.80917 6.25 7.5C6.25 8.19083 6.66667 8.75 7.18542 8.75C7.70417 8.75 8.12083 8.19083 8.12083 7.5ZM10.0073 12.0948C11.7534 12.0948 13.3324 11.7172 14.4664 11.4461C15.5741 11.1812 16.2573 11.0178 16.2573 11.4069C16.2573 14.8587 13.4591 17.6569 10.0073 17.6569C6.55554 17.6569 3.75732 14.8587 3.75732 11.4069C3.75732 11.0178 4.44055 11.1812 5.54823 11.446L5.54824 11.4461C6.68228 11.7172 8.2612 12.0948 10.0073 12.0948ZM13.8699 12.6658C12.9969 12.8943 11.6587 13.2444 10 13.2444C8.34129 13.2444 7.00314 12.8943 6.13008 12.6658C5.40436 12.4759 5 12.3701 5 12.6194C5 15.0119 8.635 15.1194 10 15.1194C11.5325 15.1194 15 15.0115 15 12.6194C15 12.3701 14.5956 12.4759 13.8699 12.6658Z" fill="#ADB5BD"/>
</svg>
