<svg width="30" height="30" viewBox="0 0 30 30" fill="none" xmlns="http://www.w3.org/2000/svg">
<path d="M29.7493 15.5887C29.2819 15.06 28.648 14.7112 27.9553 14.6018C27.2626 14.4923 26.5538 14.6289 25.9494 14.9882C25.6527 14.4802 25.356 13.9952 25.0479 13.5102C24.7398 13.0252 24.4773 12.263 23.9067 11.8935C23.6265 11.6866 23.324 11.5123 23.0052 11.3739C22.9702 11.1021 22.8407 10.8518 22.64 10.6678C22.4393 10.4837 22.1805 10.3779 21.9097 10.3692H8.2161C7.94258 10.3657 7.67689 10.4617 7.46744 10.6397C7.25799 10.8177 7.1187 11.066 7.07496 11.3392C6.75614 11.4777 6.45373 11.652 6.17346 11.8589C5.6143 12.2284 5.4089 12.9212 5.03232 13.4755C4.65575 14.0298 4.42752 14.4455 4.13083 14.9536C3.5251 14.5956 2.81553 14.4609 2.12276 14.5725C1.42999 14.6841 0.796797 15.035 0.33084 15.5656C0.221774 15.6769 0.136243 15.8095 0.0794556 15.9554C0.0226682 16.1012 -0.00418616 16.2572 0.000528834 16.4139C0.00524383 16.5705 0.0414294 16.7246 0.106881 16.8667C0.172332 17.0087 0.265679 17.1358 0.381236 17.2402C0.496792 17.3446 0.632137 17.424 0.779027 17.4738C0.925917 17.5235 1.08128 17.5425 1.23564 17.5295C1.39 17.5165 1.54014 17.4719 1.6769 17.3983C1.81366 17.3247 1.93419 17.2237 2.03113 17.1014C2.15597 16.9619 2.32683 16.8731 2.51169 16.8519C2.69655 16.8306 2.88272 16.8783 3.03533 16.986C3.03533 16.986 3.03533 17.0553 3.03533 17.0784C3.05571 17.0918 3.07949 17.0989 3.1038 17.0989C3.12811 17.0989 3.1519 17.0918 3.17227 17.0784C3.28658 17.2012 3.35516 17.3604 3.36626 17.5287C3.37678 17.7357 3.30719 17.9386 3.17227 18.0945C3.02753 18.2613 2.93333 18.4666 2.90094 18.6861C2.86856 18.9056 2.89935 19.1299 2.98964 19.3321C3.07994 19.5344 3.2259 19.706 3.41008 19.8265C3.59425 19.9469 3.80882 20.0111 4.02812 20.0114C4.18736 20.011 4.34476 19.9769 4.49019 19.9113C4.63563 19.8457 4.76588 19.75 4.87256 19.6304C5.34099 19.1021 5.61495 18.4264 5.64821 17.7175C5.68148 17.0085 5.472 16.3096 5.05515 15.7388C5.5116 15.3924 5.95664 15.0344 6.39028 14.6649C6.59568 14.5033 6.8125 14.3531 7.02931 14.203V23.0715C7.02931 23.3778 7.14954 23.6715 7.36354 23.8881C7.57755 24.1046 7.8678 24.2263 8.17045 24.2263H9.43711V27.6905H8.47856C8.17591 27.6905 7.88566 27.8122 7.67165 28.0288C7.45765 28.2453 7.33742 28.539 7.33742 28.8453C7.33742 29.1515 7.45765 29.4453 7.67165 29.6618C7.88566 29.8784 8.17591 30 8.47856 30H12.7806C13.0833 30 13.3735 29.8784 13.5875 29.6618C13.8016 29.4453 13.9218 29.1515 13.9218 28.8453C13.9218 28.539 13.8016 28.2453 13.5875 28.0288C13.3735 27.8122 13.0833 27.6905 12.7806 27.6905H11.8107V24.2263H18.4064V27.6905H17.3452C17.0425 27.6905 16.7523 27.8122 16.5383 28.0288C16.3243 28.2453 16.2041 28.539 16.2041 28.8453C16.2041 29.1515 16.3243 29.4453 16.5383 29.6618C16.7523 29.8784 17.0425 30 17.3452 30H21.556C21.8586 30 22.1489 29.8784 22.3629 29.6618C22.5769 29.4453 22.6971 29.1515 22.6971 28.8453C22.6971 28.539 22.5769 28.2453 22.3629 28.0288C22.1489 27.8122 21.8586 27.6905 21.556 27.6905H20.5974V24.2263H21.9097C22.2124 24.2263 22.5026 24.1046 22.7166 23.8881C22.9306 23.6715 23.0509 23.3778 23.0509 23.0715V14.2723C23.2677 14.4224 23.4845 14.5725 23.6899 14.7342C24.1235 15.1037 24.5686 15.4617 25.025 15.8081C24.6082 16.3789 24.3987 17.0778 24.432 17.7868C24.4652 18.4957 24.7392 19.1714 25.2076 19.6996C25.3143 19.8193 25.4446 19.915 25.59 19.9806C25.7354 20.0462 25.8928 20.0803 26.0521 20.0807C26.2714 20.0804 26.4859 20.0162 26.6701 19.8957C26.8543 19.7753 27.0003 19.6036 27.0905 19.4014C27.1808 19.1992 27.2116 18.9749 27.1792 18.7554C27.1469 18.5359 27.0527 18.3305 26.9079 18.1638C26.7812 18.0234 26.711 17.8401 26.711 17.65C26.711 17.4598 26.7812 17.2765 26.9079 17.1361C26.9373 17.1477 26.9699 17.1477 26.9992 17.1361C27.022 17.1221 27.0399 17.1012 27.0501 17.0762C27.0604 17.0513 27.0625 17.0238 27.0563 16.9975C27.2079 16.893 27.3916 16.8472 27.5739 16.8684C27.7561 16.8896 27.9248 16.9764 28.0491 17.113C28.2549 17.323 28.5325 17.4451 28.8246 17.4541C29.1168 17.4631 29.4012 17.3583 29.6193 17.1614C29.8373 16.9644 29.9724 16.6903 29.9966 16.3955C30.0208 16.1008 29.9323 15.8079 29.7493 15.5772V15.5887ZM20.7686 21.9168H9.35723V12.6787H20.7686V21.9168Z" fill="#9EC5FE"/>
<path d="M8.14736 9.30731H21.9779C22.2806 9.30731 22.5708 9.18565 22.7848 8.96909C22.9989 8.75253 23.1191 8.45882 23.1191 8.15256C23.1191 5.99036 22.2703 3.91673 20.7594 2.38783C19.2485 0.858928 17.1993 0 15.0627 0C12.926 0 10.8768 0.858928 9.3659 2.38783C7.85503 3.91673 7.00623 5.99036 7.00623 8.15256C7.00623 8.45882 7.12645 8.75253 7.34046 8.96909C7.55446 9.18565 7.84471 9.30731 8.14736 9.30731ZM15.0627 2.28641C16.4037 2.27575 17.7067 2.73781 18.7478 3.5933C19.7889 4.44878 20.5033 5.64433 20.7683 6.97471H9.35697C9.62197 5.64433 10.3364 4.44878 11.3775 3.5933C12.4186 2.73781 13.7216 2.27575 15.0627 2.28641V2.28641Z" fill="#9EC5FE"/>
</svg>
