<svg width="30" height="30" viewBox="0 0 30 30" fill="none" xmlns="http://www.w3.org/2000/svg">
<path fill-rule="evenodd" clip-rule="evenodd" d="M24.3777 15C24.3777 15.425 24.3402 15.825 24.2902 16.225L26.9277 18.2875C27.1652 18.475 27.2277 18.8125 27.0777 19.0875L24.5777 23.4125C24.4652 23.6125 24.2527 23.725 24.0402 23.725C23.9652 23.725 23.8902 23.7125 23.8152 23.6875L20.7027 22.4375C20.0527 22.925 19.3527 23.35 18.5902 23.6625L18.1152 26.975C18.0777 27.275 17.8152 27.5 17.5027 27.5H12.5027C12.1902 27.5 11.9277 27.275 11.8902 26.975L11.4152 23.6625C10.6527 23.35 9.95273 22.9375 9.30273 22.4375L6.19023 23.6875C6.12773 23.7125 6.05273 23.725 5.97773 23.725C5.75273 23.725 5.54023 23.6125 5.42773 23.4125L2.92773 19.0875C2.77773 18.8125 2.84023 18.475 3.07773 18.2875L5.71523 16.225C5.66523 15.825 5.62773 15.4125 5.62773 15C5.62773 14.5875 5.66523 14.175 5.71523 13.775L3.07773 11.7125C2.84023 11.525 2.76523 11.1875 2.92773 10.9125L5.42773 6.5875C5.54023 6.3875 5.75273 6.275 5.96523 6.275C6.04023 6.275 6.11523 6.2875 6.19023 6.3125L9.30273 7.5625C9.95273 7.075 10.6527 6.65 11.4152 6.3375L11.8902 3.025C11.9277 2.725 12.1902 2.5 12.5027 2.5H17.5027C17.8152 2.5 18.0777 2.725 18.1152 3.025L18.5902 6.3375C19.3527 6.65 20.0527 7.0625 20.7027 7.5625L23.8152 6.3125C23.8777 6.2875 23.9527 6.275 24.0277 6.275C24.2527 6.275 24.4652 6.3875 24.5777 6.5875L27.0777 10.9125C27.2277 11.1875 27.1652 11.525 26.9277 11.7125L24.2902 13.775C24.3402 14.175 24.3777 14.575 24.3777 15ZM21.8777 15C21.8777 14.7375 21.8652 14.475 21.8152 14.0875L21.6402 12.675L22.7527 11.8L24.0902 10.7375L23.2152 9.225L21.6277 9.8625L20.3027 10.4L19.1652 9.525C18.6652 9.15 18.1652 8.8625 17.6277 8.6375L16.3027 8.1L16.1027 6.6875L15.8652 5H14.1277L13.8777 6.6875L13.6777 8.1L12.3527 8.6375C11.8402 8.85 11.3277 9.15 10.7902 9.55L9.66523 10.4L8.36523 9.875L6.77773 9.2375L5.90273 10.75L7.25273 11.8L8.36523 12.675L8.19023 14.0875C8.15273 14.4625 8.12773 14.75 8.12773 15C8.12773 15.25 8.15273 15.5375 8.19023 15.925L8.36523 17.3375L7.25273 18.2125L5.90273 19.2625L6.77773 20.775L8.36523 20.1375L9.69023 19.6L10.8277 20.475C11.3277 20.85 11.8277 21.1375 12.3652 21.3625L13.6902 21.9L13.8902 23.3125L14.1277 25H15.8777L16.1277 23.3125L16.3277 21.9L17.6527 21.3625C18.1652 21.15 18.6777 20.85 19.2152 20.45L20.3402 19.6L21.6402 20.125L23.2277 20.7625L24.1027 19.25L22.7527 18.2L21.6402 17.325L21.8152 15.9125C21.8527 15.5375 21.8777 15.2625 21.8777 15ZM15.0027 10C12.2402 10 10.0027 12.2375 10.0027 15C10.0027 17.7625 12.2402 20 15.0027 20C17.7652 20 20.0027 17.7625 20.0027 15C20.0027 12.2375 17.7652 10 15.0027 10ZM12.5027 15C12.5027 16.375 13.6277 17.5 15.0027 17.5C16.3777 17.5 17.5027 16.375 17.5027 15C17.5027 13.625 16.3777 12.5 15.0027 12.5C13.6277 12.5 12.5027 13.625 12.5027 15Z" fill="#9EC5FE"/>
</svg>
